<mxfile host="app.diagrams.net" modified="2023-10-24T07:00:04.726Z" agent="Mozilla/5.0 (Windows NT 10.0; Win64; x64) AppleWebKit/537.36 (KHTML, like Gecko) Chrome/116.0.5845.888 YaBrowser/23.9.2.888 Yowser/2.5 Safari/537.36" etag="BnGBJCeN__Bu7bky9C-8" version="22.0.6" type="device">
  <diagram name="Страница 1" id="mk4cR8Ya14CtK5K9nIGn">
    <mxGraphModel dx="1386" dy="791" grid="1" gridSize="10" guides="1" tooltips="1" connect="1" arrows="1" fold="1" page="1" pageScale="1" pageWidth="827" pageHeight="1169" math="0" shadow="0">
      <root>
        <mxCell id="0" />
        <mxCell id="1" parent="0" />
        <mxCell id="EhfTGo5Pv-C4Cp4tTSCV-30" value="Нотариус" style="text;html=1;strokeColor=none;fillColor=none;align=center;verticalAlign=middle;whiteSpace=wrap;rounded=0;" vertex="1" parent="1">
          <mxGeometry x="70" y="20" width="60" height="30" as="geometry" />
        </mxCell>
        <mxCell id="EhfTGo5Pv-C4Cp4tTSCV-31" value="Клиент" style="text;html=1;strokeColor=none;fillColor=none;align=center;verticalAlign=middle;whiteSpace=wrap;rounded=0;" vertex="1" parent="1">
          <mxGeometry x="320" y="20" width="60" height="30" as="geometry" />
        </mxCell>
        <mxCell id="EhfTGo5Pv-C4Cp4tTSCV-32" value="МФЦ" style="text;html=1;strokeColor=none;fillColor=none;align=center;verticalAlign=middle;whiteSpace=wrap;rounded=0;" vertex="1" parent="1">
          <mxGeometry x="540" y="20" width="60" height="30" as="geometry" />
        </mxCell>
        <mxCell id="EhfTGo5Pv-C4Cp4tTSCV-34" value="ОВД" style="text;html=1;strokeColor=none;fillColor=none;align=center;verticalAlign=middle;whiteSpace=wrap;rounded=0;" vertex="1" parent="1">
          <mxGeometry x="710" y="20" width="60" height="30" as="geometry" />
        </mxCell>
        <mxCell id="EhfTGo5Pv-C4Cp4tTSCV-35" value="" style="endArrow=none;html=1;rounded=0;" edge="1" parent="1">
          <mxGeometry width="50" height="50" relative="1" as="geometry">
            <mxPoint x="480" y="720" as="sourcePoint" />
            <mxPoint x="480" as="targetPoint" />
          </mxGeometry>
        </mxCell>
        <mxCell id="EhfTGo5Pv-C4Cp4tTSCV-36" value="" style="endArrow=none;html=1;rounded=0;" edge="1" parent="1">
          <mxGeometry width="50" height="50" relative="1" as="geometry">
            <mxPoint x="680" y="720" as="sourcePoint" />
            <mxPoint x="680" as="targetPoint" />
          </mxGeometry>
        </mxCell>
        <mxCell id="EhfTGo5Pv-C4Cp4tTSCV-37" value="" style="endArrow=none;html=1;rounded=0;" edge="1" parent="1">
          <mxGeometry width="50" height="50" relative="1" as="geometry">
            <mxPoint x="280" y="720" as="sourcePoint" />
            <mxPoint x="280" as="targetPoint" />
          </mxGeometry>
        </mxCell>
        <mxCell id="EhfTGo5Pv-C4Cp4tTSCV-38" value="" style="endArrow=classic;html=1;rounded=0;entryX=0.5;entryY=0;entryDx=0;entryDy=0;" edge="1" parent="1" target="EhfTGo5Pv-C4Cp4tTSCV-39">
          <mxGeometry width="50" height="50" relative="1" as="geometry">
            <mxPoint x="400" y="80" as="sourcePoint" />
            <mxPoint x="320" y="200" as="targetPoint" />
            <Array as="points">
              <mxPoint x="350" y="80" />
            </Array>
          </mxGeometry>
        </mxCell>
        <mxCell id="EhfTGo5Pv-C4Cp4tTSCV-39" value="Запрос на оформление всех нужных документов" style="rounded=1;whiteSpace=wrap;html=1;strokeWidth=0;" vertex="1" parent="1">
          <mxGeometry x="290" y="110" width="120" height="60" as="geometry" />
        </mxCell>
        <mxCell id="EhfTGo5Pv-C4Cp4tTSCV-40" value="" style="endArrow=classic;html=1;rounded=0;exitX=0;exitY=0.5;exitDx=0;exitDy=0;" edge="1" parent="1" source="EhfTGo5Pv-C4Cp4tTSCV-39">
          <mxGeometry width="50" height="50" relative="1" as="geometry">
            <mxPoint x="390" y="310" as="sourcePoint" />
            <mxPoint x="120" y="180" as="targetPoint" />
            <Array as="points">
              <mxPoint x="120" y="140" />
            </Array>
          </mxGeometry>
        </mxCell>
        <mxCell id="EhfTGo5Pv-C4Cp4tTSCV-41" value="Оформление всех нужных документов&amp;nbsp;" style="rounded=1;whiteSpace=wrap;html=1;strokeWidth=0;" vertex="1" parent="1">
          <mxGeometry x="60" y="180" width="120" height="60" as="geometry" />
        </mxCell>
        <mxCell id="EhfTGo5Pv-C4Cp4tTSCV-42" value="" style="endArrow=classic;html=1;rounded=0;exitX=0.5;exitY=1;exitDx=0;exitDy=0;" edge="1" parent="1" source="EhfTGo5Pv-C4Cp4tTSCV-41">
          <mxGeometry width="50" height="50" relative="1" as="geometry">
            <mxPoint x="390" y="310" as="sourcePoint" />
            <mxPoint x="360" y="320" as="targetPoint" />
            <Array as="points">
              <mxPoint x="120" y="280" />
              <mxPoint x="360" y="280" />
            </Array>
          </mxGeometry>
        </mxCell>
        <mxCell id="EhfTGo5Pv-C4Cp4tTSCV-43" value="Подготовка всех нужных документов(сбор)" style="rounded=1;whiteSpace=wrap;html=1;strokeWidth=0;" vertex="1" parent="1">
          <mxGeometry x="300" y="320" width="120" height="60" as="geometry" />
        </mxCell>
        <mxCell id="EhfTGo5Pv-C4Cp4tTSCV-44" value="" style="endArrow=classic;html=1;rounded=0;exitX=0.5;exitY=1;exitDx=0;exitDy=0;entryX=0.5;entryY=0;entryDx=0;entryDy=0;" edge="1" parent="1" source="EhfTGo5Pv-C4Cp4tTSCV-43" target="EhfTGo5Pv-C4Cp4tTSCV-45">
          <mxGeometry width="50" height="50" relative="1" as="geometry">
            <mxPoint x="390" y="310" as="sourcePoint" />
            <mxPoint x="580" y="370" as="targetPoint" />
            <Array as="points" />
          </mxGeometry>
        </mxCell>
        <mxCell id="EhfTGo5Pv-C4Cp4tTSCV-45" value="Передача документов в мфц" style="rounded=1;whiteSpace=wrap;html=1;" vertex="1" parent="1">
          <mxGeometry x="300" y="420" width="120" height="60" as="geometry" />
        </mxCell>
        <mxCell id="EhfTGo5Pv-C4Cp4tTSCV-46" value="" style="endArrow=classic;html=1;rounded=0;exitX=1;exitY=0.5;exitDx=0;exitDy=0;" edge="1" parent="1" source="EhfTGo5Pv-C4Cp4tTSCV-45">
          <mxGeometry width="50" height="50" relative="1" as="geometry">
            <mxPoint x="390" y="410" as="sourcePoint" />
            <mxPoint x="540" y="450" as="targetPoint" />
          </mxGeometry>
        </mxCell>
        <mxCell id="EhfTGo5Pv-C4Cp4tTSCV-55" style="edgeStyle=orthogonalEdgeStyle;rounded=0;orthogonalLoop=1;jettySize=auto;html=1;exitX=0.5;exitY=1;exitDx=0;exitDy=0;entryX=0.5;entryY=0;entryDx=0;entryDy=0;" edge="1" parent="1" source="EhfTGo5Pv-C4Cp4tTSCV-47" target="EhfTGo5Pv-C4Cp4tTSCV-54">
          <mxGeometry relative="1" as="geometry" />
        </mxCell>
        <mxCell id="EhfTGo5Pv-C4Cp4tTSCV-47" value="Проверка документов&amp;nbsp;" style="rounded=1;whiteSpace=wrap;html=1;strokeWidth=0;" vertex="1" parent="1">
          <mxGeometry x="540" y="420" width="120" height="60" as="geometry" />
        </mxCell>
        <mxCell id="EhfTGo5Pv-C4Cp4tTSCV-48" value="Передача документов в ОВД" style="rounded=1;whiteSpace=wrap;html=1;" vertex="1" parent="1">
          <mxGeometry x="540" y="580" width="120" height="60" as="geometry" />
        </mxCell>
        <mxCell id="EhfTGo5Pv-C4Cp4tTSCV-49" value="" style="endArrow=classic;html=1;rounded=0;exitX=1.017;exitY=0.65;exitDx=0;exitDy=0;exitPerimeter=0;entryX=0.45;entryY=0;entryDx=0;entryDy=0;entryPerimeter=0;" edge="1" parent="1" source="EhfTGo5Pv-C4Cp4tTSCV-48" target="EhfTGo5Pv-C4Cp4tTSCV-51">
          <mxGeometry width="50" height="50" relative="1" as="geometry">
            <mxPoint x="390" y="410" as="sourcePoint" />
            <mxPoint x="760" y="600" as="targetPoint" />
            <Array as="points">
              <mxPoint x="774" y="620" />
            </Array>
          </mxGeometry>
        </mxCell>
        <mxCell id="EhfTGo5Pv-C4Cp4tTSCV-51" value="Оформление регистрации по новому адресу" style="rounded=1;whiteSpace=wrap;html=1;" vertex="1" parent="1">
          <mxGeometry x="720" y="680" width="120" height="60" as="geometry" />
        </mxCell>
        <mxCell id="EhfTGo5Pv-C4Cp4tTSCV-52" value="" style="endArrow=classic;html=1;rounded=0;exitX=0;exitY=0.5;exitDx=0;exitDy=0;entryX=0.5;entryY=0;entryDx=0;entryDy=0;" edge="1" parent="1" source="EhfTGo5Pv-C4Cp4tTSCV-51" target="EhfTGo5Pv-C4Cp4tTSCV-53">
          <mxGeometry width="50" height="50" relative="1" as="geometry">
            <mxPoint x="390" y="510" as="sourcePoint" />
            <mxPoint x="580" y="660" as="targetPoint" />
            <Array as="points">
              <mxPoint x="580" y="710" />
            </Array>
          </mxGeometry>
        </mxCell>
        <mxCell id="EhfTGo5Pv-C4Cp4tTSCV-53" value="Выдача документа&amp;nbsp; с отметкой о регистрации по новому адресу" style="rounded=1;whiteSpace=wrap;html=1;" vertex="1" parent="1">
          <mxGeometry x="520" y="760" width="120" height="60" as="geometry" />
        </mxCell>
        <mxCell id="EhfTGo5Pv-C4Cp4tTSCV-56" style="edgeStyle=orthogonalEdgeStyle;rounded=0;orthogonalLoop=1;jettySize=auto;html=1;exitX=0.5;exitY=1;exitDx=0;exitDy=0;entryX=0.5;entryY=0;entryDx=0;entryDy=0;" edge="1" parent="1" source="EhfTGo5Pv-C4Cp4tTSCV-54" target="EhfTGo5Pv-C4Cp4tTSCV-48">
          <mxGeometry relative="1" as="geometry" />
        </mxCell>
        <mxCell id="EhfTGo5Pv-C4Cp4tTSCV-62" style="edgeStyle=orthogonalEdgeStyle;rounded=0;orthogonalLoop=1;jettySize=auto;html=1;exitX=0;exitY=0.5;exitDx=0;exitDy=0;entryX=1;entryY=0.5;entryDx=0;entryDy=0;" edge="1" parent="1" source="EhfTGo5Pv-C4Cp4tTSCV-54" target="EhfTGo5Pv-C4Cp4tTSCV-58">
          <mxGeometry relative="1" as="geometry" />
        </mxCell>
        <mxCell id="EhfTGo5Pv-C4Cp4tTSCV-54" value="" style="rhombus;whiteSpace=wrap;html=1;" vertex="1" parent="1">
          <mxGeometry x="575" y="510" width="50" height="40" as="geometry" />
        </mxCell>
        <mxCell id="EhfTGo5Pv-C4Cp4tTSCV-57" value="Данные верны" style="text;html=1;strokeColor=none;fillColor=none;align=center;verticalAlign=middle;whiteSpace=wrap;rounded=0;" vertex="1" parent="1">
          <mxGeometry x="610" y="540" width="60" height="30" as="geometry" />
        </mxCell>
        <mxCell id="EhfTGo5Pv-C4Cp4tTSCV-60" style="edgeStyle=orthogonalEdgeStyle;rounded=0;orthogonalLoop=1;jettySize=auto;html=1;exitX=0.5;exitY=0;exitDx=0;exitDy=0;entryX=0.5;entryY=1;entryDx=0;entryDy=0;" edge="1" parent="1" source="EhfTGo5Pv-C4Cp4tTSCV-58" target="EhfTGo5Pv-C4Cp4tTSCV-59">
          <mxGeometry relative="1" as="geometry" />
        </mxCell>
        <mxCell id="EhfTGo5Pv-C4Cp4tTSCV-58" value="Перепроверка всех документов&amp;nbsp;" style="rounded=1;whiteSpace=wrap;html=1;" vertex="1" parent="1">
          <mxGeometry x="300" y="610" width="120" height="60" as="geometry" />
        </mxCell>
        <mxCell id="EhfTGo5Pv-C4Cp4tTSCV-61" style="edgeStyle=orthogonalEdgeStyle;rounded=0;orthogonalLoop=1;jettySize=auto;html=1;exitX=0.5;exitY=0;exitDx=0;exitDy=0;entryX=0.5;entryY=1;entryDx=0;entryDy=0;" edge="1" parent="1" source="EhfTGo5Pv-C4Cp4tTSCV-59" target="EhfTGo5Pv-C4Cp4tTSCV-45">
          <mxGeometry relative="1" as="geometry" />
        </mxCell>
        <mxCell id="EhfTGo5Pv-C4Cp4tTSCV-59" value="Сбор документов" style="rounded=1;whiteSpace=wrap;html=1;" vertex="1" parent="1">
          <mxGeometry x="300" y="510" width="120" height="60" as="geometry" />
        </mxCell>
        <mxCell id="EhfTGo5Pv-C4Cp4tTSCV-63" value="Данные верны" style="text;html=1;strokeColor=none;fillColor=none;align=center;verticalAlign=middle;whiteSpace=wrap;rounded=0;" vertex="1" parent="1">
          <mxGeometry x="500" y="490" width="60" height="30" as="geometry" />
        </mxCell>
      </root>
    </mxGraphModel>
  </diagram>
</mxfile>
